<svg xmlns="http://www.w3.org/2000/svg" width="74.806" height="99.742" viewBox="0 0 74.806 99.742">
  <path id="Icon_awesome-file-contract" data-name="Icon awesome-file-contract" d="M43.637,26.494V0H4.675A4.664,4.664,0,0,0,0,4.675V95.066a4.664,4.664,0,0,0,4.675,4.675H70.131a4.664,4.664,0,0,0,4.675-4.675v-63.9H48.312A4.689,4.689,0,0,1,43.637,26.494ZM12.468,14.026a1.558,1.558,0,0,1,1.558-1.558H29.611a1.558,1.558,0,0,1,1.558,1.558v3.117A1.558,1.558,0,0,1,29.611,18.7H14.026a1.558,1.558,0,0,1-1.558-1.558Zm0,12.468a1.558,1.558,0,0,1,1.558-1.558H29.611a1.558,1.558,0,0,1,1.558,1.558v3.117a1.558,1.558,0,0,1-1.558,1.558H14.026a1.558,1.558,0,0,1-1.558-1.558ZM50.029,74.806h9.193a3.117,3.117,0,1,1,0,6.234H50.029A8.375,8.375,0,0,1,42.5,76.392a2.159,2.159,0,0,0-1.981-1.27,2.125,2.125,0,0,0-1.952,1.206l-1.494,2.988a3.114,3.114,0,0,1-2.788,1.722c-.074,0-.146,0-.222-.01a3.106,3.106,0,0,1-2.733-2.121l-3.279-9.83-2.067,6.21A8.41,8.41,0,0,1,18,81.04H15.585a3.117,3.117,0,0,1,0-6.234H18a2.183,2.183,0,0,0,2.073-1.492L23.615,62.67a4.677,4.677,0,0,1,8.874,0l2.7,8.112A8.742,8.742,0,0,1,48.049,73.54,2.223,2.223,0,0,0,50.029,74.806ZM73.443,20.455,54.371,1.364A4.672,4.672,0,0,0,51.059,0H49.871V24.935H74.806V23.747A4.66,4.66,0,0,0,73.443,20.455Z" fill="#344c74"/>
</svg>
